# xmcd CD database file
#
# Track frame offsets:
#	150
#	17552
#	34514
#	64773
#	83654
#	110492
#	129795
#	153312
#	172608
#	191034
#	212648
#	233911
#	256852
#
# Disc length: 3745 seconds
#
# Revision: 0
# Processed by: cddbd v1.5.2PL0 Copyright (c) Steve Scherf et al.
# Submitted via: CDex 1.51
#
DISCID=960e9f0d
DTITLE=FEAR MY THOUGHTS - VULCANUS
DYEAR=2007
DGENRE=Country
TTITLE0=ACCOMPANIED BY DEATH
TTITLE1=BLANKNESS
TTITLE2=CULTURE OF FEAR
TTITLE3=ACCELERATE OR DIE
TTITLE4=STAMP OF CREDENCE
TTITLE5=SURVIVAL SCARS
TTITLE6=VULCANUS
TTITLE7=SOUL CONSUMER
TTITLE8=BOTH BLOOD
TTITLE9=GATES TO NOWHERE
TTITLE10=LOST IN BLACK
TTITLE11=WASTELAND
TTITLE12=TEMPTING LIPS
EXTD=YEAR: 2007
EXTT0=
EXTT1=
EXTT2=
EXTT3=
EXTT4=
EXTT5=
EXTT6=
EXTT7=
EXTT8=
EXTT9=
EXTT10=
EXTT11=
EXTT12=
PLAYORDER=
